<mxfile host="app.diagrams.net" agent="Mozilla/5.0 (Windows NT 10.0; Win64; x64; rv:130.0) Gecko/20100101 Firefox/130.0" version="24.7.13">
  <diagram name="PÃ¡gina-1" id="bzYuoer0dDeCXXSLm-xG">
    <mxGraphModel dx="2118" dy="2252" grid="1" gridSize="10" guides="1" tooltips="1" connect="1" arrows="1" fold="1" page="1" pageScale="1" pageWidth="827" pageHeight="1169" math="0" shadow="0">
      <root>
        <mxCell id="0" />
        <mxCell id="1" parent="0" />
        <mxCell id="3vq8-zfYxLDUjbg7CqO3-1" value="&lt;b&gt;Interprete&lt;/b&gt;Repositorio" style="swimlane;fontStyle=1;align=center;verticalAlign=top;childLayout=stackLayout;horizontal=1;startSize=26;horizontalStack=0;resizeParent=1;resizeParentMax=0;resizeLast=0;collapsible=1;marginBottom=0;whiteSpace=wrap;html=1;" parent="1" vertex="1">
          <mxGeometry x="1430" y="498" width="166" height="34" as="geometry" />
        </mxCell>
        <mxCell id="3vq8-zfYxLDUjbg7CqO3-2" value="" style="line;strokeWidth=1;fillColor=none;align=left;verticalAlign=middle;spacingTop=-1;spacingLeft=3;spacingRight=3;rotatable=0;labelPosition=right;points=[];portConstraint=eastwest;strokeColor=inherit;" parent="3vq8-zfYxLDUjbg7CqO3-1" vertex="1">
          <mxGeometry y="26" width="166" height="8" as="geometry" />
        </mxCell>
        <mxCell id="3vq8-zfYxLDUjbg7CqO3-3" value="Crud&lt;b&gt;Interprete&lt;/b&gt;Servicio" style="swimlane;fontStyle=1;align=center;verticalAlign=top;childLayout=stackLayout;horizontal=1;startSize=26;horizontalStack=0;resizeParent=1;resizeParentMax=0;resizeLast=0;collapsible=1;marginBottom=0;whiteSpace=wrap;html=1;" parent="1" vertex="1">
          <mxGeometry x="1080" y="489" width="210" height="60" as="geometry" />
        </mxCell>
        <mxCell id="3vq8-zfYxLDUjbg7CqO3-4" value="+ repo: ICrudnterpreteRepositorio" style="text;strokeColor=none;fillColor=none;align=left;verticalAlign=top;spacingLeft=4;spacingRight=4;overflow=hidden;rotatable=0;points=[[0,0.5],[1,0.5]];portConstraint=eastwest;whiteSpace=wrap;html=1;" parent="3vq8-zfYxLDUjbg7CqO3-3" vertex="1">
          <mxGeometry y="26" width="210" height="26" as="geometry" />
        </mxCell>
        <mxCell id="3vq8-zfYxLDUjbg7CqO3-5" value="" style="line;strokeWidth=1;fillColor=none;align=left;verticalAlign=middle;spacingTop=-1;spacingLeft=3;spacingRight=3;rotatable=0;labelPosition=right;points=[];portConstraint=eastwest;strokeColor=inherit;" parent="3vq8-zfYxLDUjbg7CqO3-3" vertex="1">
          <mxGeometry y="52" width="210" height="8" as="geometry" />
        </mxCell>
        <mxCell id="3vq8-zfYxLDUjbg7CqO3-6" value="&lt;p style=&quot;margin:0px;margin-top:4px;text-align:center;&quot;&gt;&lt;i&gt;&amp;lt;&amp;lt;Interface&amp;gt;&amp;gt;&lt;/i&gt;&lt;b&gt;&lt;br&gt;&lt;/b&gt;&lt;/p&gt;&lt;p style=&quot;margin:0px;margin-top:4px;text-align:center;&quot;&gt;&lt;b&gt;ICrud&lt;/b&gt;&lt;b&gt;Interprete&lt;/b&gt;&lt;b&gt;Service&lt;/b&gt;&lt;br&gt;&lt;/p&gt;&lt;br&gt;&lt;hr size=&quot;1&quot; style=&quot;border-style:solid;&quot;&gt;&lt;div&gt;&amp;nbsp;+ Alta (Interprete i): Interprete&lt;/div&gt;&lt;div&gt;&amp;nbsp;+ Baja (Interprete i): Interprete&lt;/div&gt;&lt;div&gt;&amp;nbsp;+ Consulta (int idInterprete): Interprete&lt;/div&gt;&lt;div&gt;&amp;nbsp;+ Listado ():List&amp;lt;Interprete&amp;gt;&lt;br&gt;&lt;/div&gt;&lt;div&gt;&amp;nbsp;+ Modificar(Interprete i): Interprete&lt;/div&gt;" style="verticalAlign=top;align=left;overflow=fill;html=1;whiteSpace=wrap;" parent="1" vertex="1">
          <mxGeometry x="1080" y="259" width="230" height="150" as="geometry" />
        </mxCell>
        <mxCell id="3vq8-zfYxLDUjbg7CqO3-7" value="" style="endArrow=block;dashed=1;endFill=0;endSize=12;html=1;rounded=0;exitX=0.5;exitY=0;exitDx=0;exitDy=0;entryX=0.46;entryY=1.002;entryDx=0;entryDy=0;entryPerimeter=0;" parent="1" source="3vq8-zfYxLDUjbg7CqO3-3" target="3vq8-zfYxLDUjbg7CqO3-6" edge="1">
          <mxGeometry width="160" relative="1" as="geometry">
            <mxPoint x="1260" y="429" as="sourcePoint" />
            <mxPoint x="1340" y="349" as="targetPoint" />
          </mxGeometry>
        </mxCell>
        <mxCell id="3vq8-zfYxLDUjbg7CqO3-8" value="" style="endArrow=diamondThin;endFill=0;endSize=24;html=1;rounded=0;entryX=0.999;entryY=0.903;entryDx=0;entryDy=0;entryPerimeter=0;" parent="1" target="3vq8-zfYxLDUjbg7CqO3-4" edge="1">
          <mxGeometry width="160" relative="1" as="geometry">
            <mxPoint x="1400" y="299" as="sourcePoint" />
            <mxPoint x="1320" y="579" as="targetPoint" />
          </mxGeometry>
        </mxCell>
        <mxCell id="3vq8-zfYxLDUjbg7CqO3-9" value="&lt;p style=&quot;margin:0px;margin-top:4px;text-align:center;&quot;&gt;&lt;i&gt;&amp;lt;&amp;lt;Interface&amp;gt;&amp;gt;&lt;/i&gt;&lt;b&gt;&lt;br&gt;&lt;/b&gt;&lt;/p&gt;&lt;p style=&quot;margin:0px;margin-top:4px;text-align:center;&quot;&gt;&lt;b&gt;ICrudI&lt;/b&gt;&lt;b&gt;nterprete&lt;/b&gt;&lt;b&gt;Repositorio&lt;/b&gt;&lt;br&gt;&lt;/p&gt;&lt;br&gt;&lt;hr size=&quot;1&quot; style=&quot;border-style:solid;&quot;&gt;&lt;div&gt;&amp;nbsp;+ Alta (Interprete i): Interprete&lt;/div&gt;&lt;div&gt;&amp;nbsp;+ Baja (Interprete i): Interprete&lt;/div&gt;&lt;div&gt;&amp;nbsp;+ Consulta (int idInterprete): Interprete&lt;/div&gt;&lt;div&gt;&amp;nbsp;+ Listado ():List&amp;lt;Interprete&amp;gt;&lt;br&gt;&lt;/div&gt;&lt;div&gt;&amp;nbsp;+ Modificar(Interprete i): Interprete&lt;/div&gt;" style="verticalAlign=top;align=left;overflow=fill;html=1;whiteSpace=wrap;" parent="1" vertex="1">
          <mxGeometry x="1401" y="269" width="230" height="150" as="geometry" />
        </mxCell>
        <mxCell id="3vq8-zfYxLDUjbg7CqO3-10" value="" style="endArrow=block;dashed=1;endFill=0;endSize=12;html=1;rounded=0;exitX=0.5;exitY=0;exitDx=0;exitDy=0;entryX=0.46;entryY=1.002;entryDx=0;entryDy=0;entryPerimeter=0;" parent="1" edge="1">
          <mxGeometry width="160" relative="1" as="geometry">
            <mxPoint x="1510" y="499" as="sourcePoint" />
            <mxPoint x="1511" y="419" as="targetPoint" />
          </mxGeometry>
        </mxCell>
        <mxCell id="3vq8-zfYxLDUjbg7CqO3-11" value="&lt;p style=&quot;margin:0px;margin-top:4px;text-align:center;&quot;&gt;&lt;i&gt;&amp;lt;&amp;lt;Interface&amp;gt;&amp;gt;&lt;/i&gt;&lt;b&gt;&lt;br&gt;&lt;/b&gt;&lt;/p&gt;&lt;p style=&quot;margin:0px;margin-top:4px;text-align:center;&quot;&gt;&lt;b&gt;ICrudInterpreteController&lt;/b&gt;&lt;br&gt;&lt;/p&gt;&lt;br&gt;&lt;hr size=&quot;1&quot; style=&quot;border-style:solid;&quot;&gt;&lt;div&gt;&amp;nbsp;+ Alta (Interprete i): Interprete&lt;/div&gt;&lt;div&gt;&amp;nbsp;+ Baja (Interprete i): Interprete&lt;/div&gt;&lt;div&gt;&amp;nbsp;+ Consulta (int idInterprete): Interprete&lt;/div&gt;&lt;div&gt;&amp;nbsp;+ Listado ():List&amp;lt;Interprete&amp;gt;&lt;br&gt;&lt;/div&gt;&lt;div&gt;&amp;nbsp;+ Modificar(Interprete i): Interprete&lt;/div&gt;" style="verticalAlign=top;align=left;overflow=fill;html=1;whiteSpace=wrap;" parent="1" vertex="1">
          <mxGeometry x="730" y="250" width="230" height="150" as="geometry" />
        </mxCell>
        <mxCell id="3vq8-zfYxLDUjbg7CqO3-12" value="&lt;b&gt;CrudI&lt;/b&gt;&lt;b&gt;nterprete&lt;/b&gt;&lt;b&gt;Controller&lt;/b&gt;" style="swimlane;fontStyle=1;align=center;verticalAlign=top;childLayout=stackLayout;horizontal=1;startSize=26;horizontalStack=0;resizeParent=1;resizeParentMax=0;resizeLast=0;collapsible=1;marginBottom=0;whiteSpace=wrap;html=1;" parent="1" vertex="1">
          <mxGeometry x="730" y="479" width="210" height="60" as="geometry" />
        </mxCell>
        <mxCell id="3vq8-zfYxLDUjbg7CqO3-13" value="+ repo: ICrudInterpreteService" style="text;strokeColor=none;fillColor=none;align=left;verticalAlign=top;spacingLeft=4;spacingRight=4;overflow=hidden;rotatable=0;points=[[0,0.5],[1,0.5]];portConstraint=eastwest;whiteSpace=wrap;html=1;" parent="3vq8-zfYxLDUjbg7CqO3-12" vertex="1">
          <mxGeometry y="26" width="210" height="26" as="geometry" />
        </mxCell>
        <mxCell id="3vq8-zfYxLDUjbg7CqO3-14" value="" style="line;strokeWidth=1;fillColor=none;align=left;verticalAlign=middle;spacingTop=-1;spacingLeft=3;spacingRight=3;rotatable=0;labelPosition=right;points=[];portConstraint=eastwest;strokeColor=inherit;" parent="3vq8-zfYxLDUjbg7CqO3-12" vertex="1">
          <mxGeometry y="52" width="210" height="8" as="geometry" />
        </mxCell>
        <mxCell id="3vq8-zfYxLDUjbg7CqO3-15" value="" style="endArrow=block;dashed=1;endFill=0;endSize=12;html=1;rounded=0;exitX=0.5;exitY=0;exitDx=0;exitDy=0;entryX=0.46;entryY=1.002;entryDx=0;entryDy=0;entryPerimeter=0;" parent="1" source="3vq8-zfYxLDUjbg7CqO3-12" edge="1">
          <mxGeometry width="160" relative="1" as="geometry">
            <mxPoint x="910" y="419" as="sourcePoint" />
            <mxPoint x="836" y="399" as="targetPoint" />
          </mxGeometry>
        </mxCell>
        <mxCell id="3vq8-zfYxLDUjbg7CqO3-16" value="" style="endArrow=diamondThin;endFill=0;endSize=24;html=1;rounded=0;exitX=0;exitY=0.25;exitDx=0;exitDy=0;entryX=0.999;entryY=0.903;entryDx=0;entryDy=0;entryPerimeter=0;" parent="1" source="3vq8-zfYxLDUjbg7CqO3-6" edge="1">
          <mxGeometry width="160" relative="1" as="geometry">
            <mxPoint x="1051" y="409" as="sourcePoint" />
            <mxPoint x="940" y="528" as="targetPoint" />
          </mxGeometry>
        </mxCell>
        <mxCell id="3vq8-zfYxLDUjbg7CqO3-17" value="&lt;b&gt;Genero&lt;/b&gt;Repositorio" style="swimlane;fontStyle=1;align=center;verticalAlign=top;childLayout=stackLayout;horizontal=1;startSize=26;horizontalStack=0;resizeParent=1;resizeParentMax=0;resizeLast=0;collapsible=1;marginBottom=0;whiteSpace=wrap;html=1;" parent="1" vertex="1">
          <mxGeometry x="1370" y="920" width="166" height="34" as="geometry" />
        </mxCell>
        <mxCell id="3vq8-zfYxLDUjbg7CqO3-18" value="" style="line;strokeWidth=1;fillColor=none;align=left;verticalAlign=middle;spacingTop=-1;spacingLeft=3;spacingRight=3;rotatable=0;labelPosition=right;points=[];portConstraint=eastwest;strokeColor=inherit;" parent="3vq8-zfYxLDUjbg7CqO3-17" vertex="1">
          <mxGeometry y="26" width="166" height="8" as="geometry" />
        </mxCell>
        <mxCell id="3vq8-zfYxLDUjbg7CqO3-19" value="Crud&lt;b&gt;Interprete&lt;/b&gt;Servicio" style="swimlane;fontStyle=1;align=center;verticalAlign=top;childLayout=stackLayout;horizontal=1;startSize=26;horizontalStack=0;resizeParent=1;resizeParentMax=0;resizeLast=0;collapsible=1;marginBottom=0;whiteSpace=wrap;html=1;" parent="1" vertex="1">
          <mxGeometry x="1020" y="911" width="210" height="60" as="geometry" />
        </mxCell>
        <mxCell id="3vq8-zfYxLDUjbg7CqO3-20" value="+ repo: ICrudnterpreteRepositorio" style="text;strokeColor=none;fillColor=none;align=left;verticalAlign=top;spacingLeft=4;spacingRight=4;overflow=hidden;rotatable=0;points=[[0,0.5],[1,0.5]];portConstraint=eastwest;whiteSpace=wrap;html=1;" parent="3vq8-zfYxLDUjbg7CqO3-19" vertex="1">
          <mxGeometry y="26" width="210" height="26" as="geometry" />
        </mxCell>
        <mxCell id="3vq8-zfYxLDUjbg7CqO3-21" value="" style="line;strokeWidth=1;fillColor=none;align=left;verticalAlign=middle;spacingTop=-1;spacingLeft=3;spacingRight=3;rotatable=0;labelPosition=right;points=[];portConstraint=eastwest;strokeColor=inherit;" parent="3vq8-zfYxLDUjbg7CqO3-19" vertex="1">
          <mxGeometry y="52" width="210" height="8" as="geometry" />
        </mxCell>
        <mxCell id="3vq8-zfYxLDUjbg7CqO3-22" value="&lt;p style=&quot;margin:0px;margin-top:4px;text-align:center;&quot;&gt;&lt;i&gt;&amp;lt;&amp;lt;Interface&amp;gt;&amp;gt;&lt;/i&gt;&lt;b&gt;&lt;br&gt;&lt;/b&gt;&lt;/p&gt;&lt;p style=&quot;margin:0px;margin-top:4px;text-align:center;&quot;&gt;&lt;b&gt;ICrud&lt;/b&gt;&lt;b&gt;Genero&lt;/b&gt;&lt;b&gt;Service&lt;/b&gt;&lt;br&gt;&lt;/p&gt;&lt;br&gt;&lt;hr size=&quot;1&quot; style=&quot;border-style:solid;&quot;&gt;&lt;div&gt;&amp;nbsp;+ Alta (Genero g): Genero&lt;/div&gt;&lt;div&gt;&amp;nbsp;+ Baja (Genero g): Genero&lt;/div&gt;&lt;div&gt;&amp;nbsp;+ Consulta (int idGenero): Genero&lt;/div&gt;&lt;div&gt;&amp;nbsp;+ Listado ():List&amp;lt;Genero&amp;gt;&lt;br&gt;&lt;/div&gt;&lt;div&gt;&amp;nbsp;+ Modificar(Genero g): Genero&lt;/div&gt;" style="verticalAlign=top;align=left;overflow=fill;html=1;whiteSpace=wrap;" parent="1" vertex="1">
          <mxGeometry x="1020" y="681" width="230" height="150" as="geometry" />
        </mxCell>
        <mxCell id="3vq8-zfYxLDUjbg7CqO3-23" value="" style="endArrow=block;dashed=1;endFill=0;endSize=12;html=1;rounded=0;exitX=0.5;exitY=0;exitDx=0;exitDy=0;entryX=0.46;entryY=1.002;entryDx=0;entryDy=0;entryPerimeter=0;" parent="1" source="3vq8-zfYxLDUjbg7CqO3-19" target="3vq8-zfYxLDUjbg7CqO3-22" edge="1">
          <mxGeometry width="160" relative="1" as="geometry">
            <mxPoint x="1200" y="851" as="sourcePoint" />
            <mxPoint x="1280" y="771" as="targetPoint" />
          </mxGeometry>
        </mxCell>
        <mxCell id="3vq8-zfYxLDUjbg7CqO3-24" value="" style="endArrow=diamondThin;endFill=0;endSize=24;html=1;rounded=0;entryX=0.999;entryY=0.903;entryDx=0;entryDy=0;entryPerimeter=0;" parent="1" target="3vq8-zfYxLDUjbg7CqO3-20" edge="1">
          <mxGeometry width="160" relative="1" as="geometry">
            <mxPoint x="1340" y="721" as="sourcePoint" />
            <mxPoint x="1260" y="1001" as="targetPoint" />
          </mxGeometry>
        </mxCell>
        <mxCell id="3vq8-zfYxLDUjbg7CqO3-25" value="&lt;p style=&quot;margin:0px;margin-top:4px;text-align:center;&quot;&gt;&lt;i&gt;&amp;lt;&amp;lt;Interface&amp;gt;&amp;gt;&lt;/i&gt;&lt;b&gt;&lt;br&gt;&lt;/b&gt;&lt;/p&gt;&lt;p style=&quot;margin:0px;margin-top:4px;text-align:center;&quot;&gt;&lt;b&gt;ICrud&lt;/b&gt;&lt;b&gt;Genero&lt;/b&gt;&lt;b&gt;Repositorio&lt;/b&gt;&lt;br&gt;&lt;/p&gt;&lt;br&gt;&lt;hr size=&quot;1&quot; style=&quot;border-style:solid;&quot;&gt;&lt;div&gt;&amp;nbsp;+ Alta (Genero &lt;b&gt;g&lt;/b&gt;): Genero&lt;/div&gt;&lt;div&gt;&amp;nbsp;+ Baja (Genero &lt;b&gt;g&lt;/b&gt;): Genero&lt;/div&gt;&lt;div&gt;&amp;nbsp;+ Consulta (int idGenero): Genero&lt;/div&gt;&lt;div&gt;&amp;nbsp;+ Listado ():List&amp;lt;Genero&amp;gt;&lt;br&gt;&lt;/div&gt;&lt;div&gt;&amp;nbsp;+ Modificar(Genero &lt;b&gt;g&lt;/b&gt;): Genero&lt;/div&gt;" style="verticalAlign=top;align=left;overflow=fill;html=1;whiteSpace=wrap;" parent="1" vertex="1">
          <mxGeometry x="1341" y="691" width="230" height="150" as="geometry" />
        </mxCell>
        <mxCell id="3vq8-zfYxLDUjbg7CqO3-26" value="" style="endArrow=block;dashed=1;endFill=0;endSize=12;html=1;rounded=0;exitX=0.5;exitY=0;exitDx=0;exitDy=0;entryX=0.46;entryY=1.002;entryDx=0;entryDy=0;entryPerimeter=0;" parent="1" edge="1">
          <mxGeometry width="160" relative="1" as="geometry">
            <mxPoint x="1450" y="921" as="sourcePoint" />
            <mxPoint x="1451" y="841" as="targetPoint" />
          </mxGeometry>
        </mxCell>
        <mxCell id="3vq8-zfYxLDUjbg7CqO3-27" value="&lt;p style=&quot;margin:0px;margin-top:4px;text-align:center;&quot;&gt;&lt;i&gt;&amp;lt;&amp;lt;Interface&amp;gt;&amp;gt;&lt;/i&gt;&lt;b&gt;&lt;br&gt;&lt;/b&gt;&lt;/p&gt;&lt;p style=&quot;margin:0px;margin-top:4px;text-align:center;&quot;&gt;&lt;b&gt;ICrudGeneroController&lt;/b&gt;&lt;br&gt;&lt;/p&gt;&lt;br&gt;&lt;hr size=&quot;1&quot; style=&quot;border-style:solid;&quot;&gt;&lt;div&gt;&amp;nbsp;+ Alta (Genero g): Genero&lt;/div&gt;&lt;div&gt;&amp;nbsp;+ Baja (Genero g): Genero&lt;/div&gt;&lt;div&gt;&amp;nbsp;+ Consulta (int idInterprete): Genero&lt;/div&gt;&lt;div&gt;&amp;nbsp;+ Listado ():List&amp;lt;Genero&amp;gt;&lt;br&gt;&lt;/div&gt;&lt;div&gt;&amp;nbsp;+ Modificar(Genero g): Genero&lt;/div&gt;" style="verticalAlign=top;align=left;overflow=fill;html=1;whiteSpace=wrap;" parent="1" vertex="1">
          <mxGeometry x="670" y="672" width="230" height="150" as="geometry" />
        </mxCell>
        <mxCell id="3vq8-zfYxLDUjbg7CqO3-28" value="&lt;b&gt;CrudGeneroController&lt;/b&gt;" style="swimlane;fontStyle=1;align=center;verticalAlign=top;childLayout=stackLayout;horizontal=1;startSize=26;horizontalStack=0;resizeParent=1;resizeParentMax=0;resizeLast=0;collapsible=1;marginBottom=0;whiteSpace=wrap;html=1;" parent="1" vertex="1">
          <mxGeometry x="670" y="901" width="210" height="60" as="geometry" />
        </mxCell>
        <mxCell id="3vq8-zfYxLDUjbg7CqO3-29" value="+ repo: ICrudGeneroService" style="text;strokeColor=none;fillColor=none;align=left;verticalAlign=top;spacingLeft=4;spacingRight=4;overflow=hidden;rotatable=0;points=[[0,0.5],[1,0.5]];portConstraint=eastwest;whiteSpace=wrap;html=1;" parent="3vq8-zfYxLDUjbg7CqO3-28" vertex="1">
          <mxGeometry y="26" width="210" height="26" as="geometry" />
        </mxCell>
        <mxCell id="3vq8-zfYxLDUjbg7CqO3-30" value="" style="line;strokeWidth=1;fillColor=none;align=left;verticalAlign=middle;spacingTop=-1;spacingLeft=3;spacingRight=3;rotatable=0;labelPosition=right;points=[];portConstraint=eastwest;strokeColor=inherit;" parent="3vq8-zfYxLDUjbg7CqO3-28" vertex="1">
          <mxGeometry y="52" width="210" height="8" as="geometry" />
        </mxCell>
        <mxCell id="3vq8-zfYxLDUjbg7CqO3-31" value="" style="endArrow=block;dashed=1;endFill=0;endSize=12;html=1;rounded=0;exitX=0.5;exitY=0;exitDx=0;exitDy=0;entryX=0.46;entryY=1.002;entryDx=0;entryDy=0;entryPerimeter=0;" parent="1" source="3vq8-zfYxLDUjbg7CqO3-28" edge="1">
          <mxGeometry width="160" relative="1" as="geometry">
            <mxPoint x="850" y="841" as="sourcePoint" />
            <mxPoint x="776" y="821" as="targetPoint" />
          </mxGeometry>
        </mxCell>
        <mxCell id="3vq8-zfYxLDUjbg7CqO3-32" value="" style="endArrow=diamondThin;endFill=0;endSize=24;html=1;rounded=0;exitX=0;exitY=0.25;exitDx=0;exitDy=0;entryX=0.999;entryY=0.903;entryDx=0;entryDy=0;entryPerimeter=0;" parent="1" source="3vq8-zfYxLDUjbg7CqO3-22" edge="1">
          <mxGeometry width="160" relative="1" as="geometry">
            <mxPoint x="991" y="831" as="sourcePoint" />
            <mxPoint x="880" y="950" as="targetPoint" />
          </mxGeometry>
        </mxCell>
        <mxCell id="3vq8-zfYxLDUjbg7CqO3-33" value="Interprete" style="swimlane;fontStyle=1;align=center;verticalAlign=top;childLayout=stackLayout;horizontal=1;startSize=26;horizontalStack=0;resizeParent=1;resizeParentMax=0;resizeLast=0;collapsible=1;marginBottom=0;whiteSpace=wrap;html=1;" parent="1" vertex="1">
          <mxGeometry x="1080" y="-410" width="160" height="164" as="geometry" />
        </mxCell>
        <mxCell id="3vq8-zfYxLDUjbg7CqO3-35" value="+ nombre: String" style="text;strokeColor=none;fillColor=none;align=left;verticalAlign=top;spacingLeft=4;spacingRight=4;overflow=hidden;rotatable=0;points=[[0,0.5],[1,0.5]];portConstraint=eastwest;whiteSpace=wrap;html=1;" parent="3vq8-zfYxLDUjbg7CqO3-33" vertex="1">
          <mxGeometry y="26" width="160" height="26" as="geometry" />
        </mxCell>
        <mxCell id="3vq8-zfYxLDUjbg7CqO3-34" value="+ idInterprete: String" style="text;strokeColor=none;fillColor=none;align=left;verticalAlign=top;spacingLeft=4;spacingRight=4;overflow=hidden;rotatable=0;points=[[0,0.5],[1,0.5]];portConstraint=eastwest;whiteSpace=wrap;html=1;" parent="3vq8-zfYxLDUjbg7CqO3-33" vertex="1">
          <mxGeometry y="52" width="160" height="26" as="geometry" />
        </mxCell>
        <mxCell id="3vq8-zfYxLDUjbg7CqO3-36" value="+ nacimiento: Date" style="text;strokeColor=none;fillColor=none;align=left;verticalAlign=top;spacingLeft=4;spacingRight=4;overflow=hidden;rotatable=0;points=[[0,0.5],[1,0.5]];portConstraint=eastwest;whiteSpace=wrap;html=1;" parent="3vq8-zfYxLDUjbg7CqO3-33" vertex="1">
          <mxGeometry y="78" width="160" height="26" as="geometry" />
        </mxCell>
        <mxCell id="3vq8-zfYxLDUjbg7CqO3-37" value="+ paisOrigen: String" style="text;strokeColor=none;fillColor=none;align=left;verticalAlign=top;spacingLeft=4;spacingRight=4;overflow=hidden;rotatable=0;points=[[0,0.5],[1,0.5]];portConstraint=eastwest;whiteSpace=wrap;html=1;" parent="3vq8-zfYxLDUjbg7CqO3-33" vertex="1">
          <mxGeometry y="104" width="160" height="26" as="geometry" />
        </mxCell>
        <mxCell id="3vq8-zfYxLDUjbg7CqO3-38" value="" style="line;strokeWidth=1;fillColor=none;align=left;verticalAlign=middle;spacingTop=-1;spacingLeft=3;spacingRight=3;rotatable=0;labelPosition=right;points=[];portConstraint=eastwest;strokeColor=inherit;" parent="3vq8-zfYxLDUjbg7CqO3-33" vertex="1">
          <mxGeometry y="130" width="160" height="8" as="geometry" />
        </mxCell>
        <mxCell id="3vq8-zfYxLDUjbg7CqO3-39" value="+ getter y setter" style="text;strokeColor=none;fillColor=none;align=left;verticalAlign=top;spacingLeft=4;spacingRight=4;overflow=hidden;rotatable=0;points=[[0,0.5],[1,0.5]];portConstraint=eastwest;whiteSpace=wrap;html=1;" parent="3vq8-zfYxLDUjbg7CqO3-33" vertex="1">
          <mxGeometry y="138" width="160" height="26" as="geometry" />
        </mxCell>
        <mxCell id="3vq8-zfYxLDUjbg7CqO3-40" value="&lt;div&gt;Genero&lt;/div&gt;&lt;div&gt;&lt;br&gt;&lt;/div&gt;" style="swimlane;fontStyle=1;align=center;verticalAlign=top;childLayout=stackLayout;horizontal=1;startSize=26;horizontalStack=0;resizeParent=1;resizeParentMax=0;resizeLast=0;collapsible=1;marginBottom=0;whiteSpace=wrap;html=1;" parent="1" vertex="1">
          <mxGeometry x="1120" y="-190" width="160" height="112" as="geometry" />
        </mxCell>
        <mxCell id="3vq8-zfYxLDUjbg7CqO3-41" value="+ idGenero: int" style="text;strokeColor=none;fillColor=none;align=left;verticalAlign=top;spacingLeft=4;spacingRight=4;overflow=hidden;rotatable=0;points=[[0,0.5],[1,0.5]];portConstraint=eastwest;whiteSpace=wrap;html=1;" parent="3vq8-zfYxLDUjbg7CqO3-40" vertex="1">
          <mxGeometry y="26" width="160" height="26" as="geometry" />
        </mxCell>
        <mxCell id="3vq8-zfYxLDUjbg7CqO3-42" value="+ tipoGenero: String" style="text;strokeColor=none;fillColor=none;align=left;verticalAlign=top;spacingLeft=4;spacingRight=4;overflow=hidden;rotatable=0;points=[[0,0.5],[1,0.5]];portConstraint=eastwest;whiteSpace=wrap;html=1;" parent="3vq8-zfYxLDUjbg7CqO3-40" vertex="1">
          <mxGeometry y="52" width="160" height="26" as="geometry" />
        </mxCell>
        <mxCell id="3vq8-zfYxLDUjbg7CqO3-43" value="" style="line;strokeWidth=1;fillColor=none;align=left;verticalAlign=middle;spacingTop=-1;spacingLeft=3;spacingRight=3;rotatable=0;labelPosition=right;points=[];portConstraint=eastwest;strokeColor=inherit;" parent="3vq8-zfYxLDUjbg7CqO3-40" vertex="1">
          <mxGeometry y="78" width="160" height="8" as="geometry" />
        </mxCell>
        <mxCell id="3vq8-zfYxLDUjbg7CqO3-44" value="+ getter y setter" style="text;strokeColor=none;fillColor=none;align=left;verticalAlign=top;spacingLeft=4;spacingRight=4;overflow=hidden;rotatable=0;points=[[0,0.5],[1,0.5]];portConstraint=eastwest;whiteSpace=wrap;html=1;" parent="3vq8-zfYxLDUjbg7CqO3-40" vertex="1">
          <mxGeometry y="86" width="160" height="26" as="geometry" />
        </mxCell>
        <mxCell id="3vq8-zfYxLDUjbg7CqO3-45" value="&lt;div&gt;Cancion&lt;/div&gt;&lt;div&gt;&lt;br&gt;&lt;/div&gt;" style="swimlane;fontStyle=1;align=center;verticalAlign=top;childLayout=stackLayout;horizontal=1;startSize=26;horizontalStack=0;resizeParent=1;resizeParentMax=0;resizeLast=0;collapsible=1;marginBottom=0;whiteSpace=wrap;html=1;" parent="1" vertex="1">
          <mxGeometry x="695" y="-280" width="160" height="164" as="geometry" />
        </mxCell>
        <mxCell id="3vq8-zfYxLDUjbg7CqO3-46" value="+ idCancion: String" style="text;strokeColor=none;fillColor=none;align=left;verticalAlign=top;spacingLeft=4;spacingRight=4;overflow=hidden;rotatable=0;points=[[0,0.5],[1,0.5]];portConstraint=eastwest;whiteSpace=wrap;html=1;" parent="3vq8-zfYxLDUjbg7CqO3-45" vertex="1">
          <mxGeometry y="26" width="160" height="26" as="geometry" />
        </mxCell>
        <mxCell id="3vq8-zfYxLDUjbg7CqO3-47" value="+ interprete: Interprete" style="text;strokeColor=none;fillColor=none;align=left;verticalAlign=top;spacingLeft=4;spacingRight=4;overflow=hidden;rotatable=0;points=[[0,0.5],[1,0.5]];portConstraint=eastwest;whiteSpace=wrap;html=1;" parent="3vq8-zfYxLDUjbg7CqO3-45" vertex="1">
          <mxGeometry y="52" width="160" height="26" as="geometry" />
        </mxCell>
        <mxCell id="3vq8-zfYxLDUjbg7CqO3-48" value="+ genero: String" style="text;strokeColor=none;fillColor=none;align=left;verticalAlign=top;spacingLeft=4;spacingRight=4;overflow=hidden;rotatable=0;points=[[0,0.5],[1,0.5]];portConstraint=eastwest;whiteSpace=wrap;html=1;" parent="3vq8-zfYxLDUjbg7CqO3-45" vertex="1">
          <mxGeometry y="78" width="160" height="26" as="geometry" />
        </mxCell>
        <mxCell id="3vq8-zfYxLDUjbg7CqO3-49" value="+ aÃ±o: String" style="text;strokeColor=none;fillColor=none;align=left;verticalAlign=top;spacingLeft=4;spacingRight=4;overflow=hidden;rotatable=0;points=[[0,0.5],[1,0.5]];portConstraint=eastwest;whiteSpace=wrap;html=1;" parent="3vq8-zfYxLDUjbg7CqO3-45" vertex="1">
          <mxGeometry y="104" width="160" height="26" as="geometry" />
        </mxCell>
        <mxCell id="3vq8-zfYxLDUjbg7CqO3-50" value="" style="line;strokeWidth=1;fillColor=none;align=left;verticalAlign=middle;spacingTop=-1;spacingLeft=3;spacingRight=3;rotatable=0;labelPosition=right;points=[];portConstraint=eastwest;strokeColor=inherit;" parent="3vq8-zfYxLDUjbg7CqO3-45" vertex="1">
          <mxGeometry y="130" width="160" height="8" as="geometry" />
        </mxCell>
        <mxCell id="3vq8-zfYxLDUjbg7CqO3-51" value="+ getter y setter" style="text;strokeColor=none;fillColor=none;align=left;verticalAlign=top;spacingLeft=4;spacingRight=4;overflow=hidden;rotatable=0;points=[[0,0.5],[1,0.5]];portConstraint=eastwest;whiteSpace=wrap;html=1;" parent="3vq8-zfYxLDUjbg7CqO3-45" vertex="1">
          <mxGeometry y="138" width="160" height="26" as="geometry" />
        </mxCell>
        <mxCell id="3vq8-zfYxLDUjbg7CqO3-52" value="CancionRepositorio" style="swimlane;fontStyle=1;align=center;verticalAlign=top;childLayout=stackLayout;horizontal=1;startSize=26;horizontalStack=0;resizeParent=1;resizeParentMax=0;resizeLast=0;collapsible=1;marginBottom=0;whiteSpace=wrap;html=1;" parent="1" vertex="1">
          <mxGeometry x="1416" y="-552" width="160" height="34" as="geometry" />
        </mxCell>
        <mxCell id="3vq8-zfYxLDUjbg7CqO3-53" value="" style="line;strokeWidth=1;fillColor=none;align=left;verticalAlign=middle;spacingTop=-1;spacingLeft=3;spacingRight=3;rotatable=0;labelPosition=right;points=[];portConstraint=eastwest;strokeColor=inherit;" parent="3vq8-zfYxLDUjbg7CqO3-52" vertex="1">
          <mxGeometry y="26" width="160" height="8" as="geometry" />
        </mxCell>
        <mxCell id="3vq8-zfYxLDUjbg7CqO3-54" value="CrudCancionServicio" style="swimlane;fontStyle=1;align=center;verticalAlign=top;childLayout=stackLayout;horizontal=1;startSize=26;horizontalStack=0;resizeParent=1;resizeParentMax=0;resizeLast=0;collapsible=1;marginBottom=0;whiteSpace=wrap;html=1;" parent="1" vertex="1">
          <mxGeometry x="1060" y="-561" width="210" height="60" as="geometry" />
        </mxCell>
        <mxCell id="3vq8-zfYxLDUjbg7CqO3-55" value="+ repo: ICrudCancionepositorio" style="text;strokeColor=none;fillColor=none;align=left;verticalAlign=top;spacingLeft=4;spacingRight=4;overflow=hidden;rotatable=0;points=[[0,0.5],[1,0.5]];portConstraint=eastwest;whiteSpace=wrap;html=1;" parent="3vq8-zfYxLDUjbg7CqO3-54" vertex="1">
          <mxGeometry y="26" width="210" height="26" as="geometry" />
        </mxCell>
        <mxCell id="3vq8-zfYxLDUjbg7CqO3-56" value="" style="line;strokeWidth=1;fillColor=none;align=left;verticalAlign=middle;spacingTop=-1;spacingLeft=3;spacingRight=3;rotatable=0;labelPosition=right;points=[];portConstraint=eastwest;strokeColor=inherit;" parent="3vq8-zfYxLDUjbg7CqO3-54" vertex="1">
          <mxGeometry y="52" width="210" height="8" as="geometry" />
        </mxCell>
        <mxCell id="3vq8-zfYxLDUjbg7CqO3-57" value="&lt;p style=&quot;margin:0px;margin-top:4px;text-align:center;&quot;&gt;&lt;i&gt;&amp;lt;&amp;lt;Interface&amp;gt;&amp;gt;&lt;/i&gt;&lt;b&gt;&lt;br&gt;&lt;/b&gt;&lt;/p&gt;&lt;p style=&quot;margin:0px;margin-top:4px;text-align:center;&quot;&gt;&lt;b&gt;ICrudCancionService&lt;/b&gt;&lt;br&gt;&lt;/p&gt;&lt;br&gt;&lt;hr size=&quot;1&quot; style=&quot;border-style:solid;&quot;&gt;&lt;div&gt;&amp;nbsp;+ Alta (Cancion c): Cancion&lt;br&gt;&lt;/div&gt;&lt;div&gt;&amp;nbsp;+ Baja (Cancion c): Cancion&lt;br&gt;&lt;/div&gt;&lt;div&gt;&amp;nbsp;+ Consulta (long idCancion): Cancion&lt;br&gt;&lt;/div&gt;&lt;div&gt;&amp;nbsp;+ Listado ():List&amp;lt;Cancion&amp;gt;&lt;br&gt;&lt;/div&gt;&lt;div&gt;&amp;nbsp;+ Modificar(Cancion c): Cancion&lt;br&gt;&lt;/div&gt;" style="verticalAlign=top;align=left;overflow=fill;html=1;whiteSpace=wrap;" parent="1" vertex="1">
          <mxGeometry x="1060" y="-791" width="230" height="150" as="geometry" />
        </mxCell>
        <mxCell id="3vq8-zfYxLDUjbg7CqO3-58" value="" style="endArrow=block;dashed=1;endFill=0;endSize=12;html=1;rounded=0;exitX=0.5;exitY=0;exitDx=0;exitDy=0;entryX=0.46;entryY=1.002;entryDx=0;entryDy=0;entryPerimeter=0;" parent="1" source="3vq8-zfYxLDUjbg7CqO3-54" target="3vq8-zfYxLDUjbg7CqO3-57" edge="1">
          <mxGeometry width="160" relative="1" as="geometry">
            <mxPoint x="1240" y="-621" as="sourcePoint" />
            <mxPoint x="1320" y="-701" as="targetPoint" />
          </mxGeometry>
        </mxCell>
        <mxCell id="3vq8-zfYxLDUjbg7CqO3-59" value="" style="endArrow=diamondThin;endFill=0;endSize=24;html=1;rounded=0;entryX=0.999;entryY=0.903;entryDx=0;entryDy=0;entryPerimeter=0;" parent="1" target="3vq8-zfYxLDUjbg7CqO3-55" edge="1">
          <mxGeometry width="160" relative="1" as="geometry">
            <mxPoint x="1380" y="-751" as="sourcePoint" />
            <mxPoint x="1300" y="-471" as="targetPoint" />
          </mxGeometry>
        </mxCell>
        <mxCell id="3vq8-zfYxLDUjbg7CqO3-60" value="&lt;p style=&quot;margin:0px;margin-top:4px;text-align:center;&quot;&gt;&lt;i&gt;&amp;lt;&amp;lt;Interface&amp;gt;&amp;gt;&lt;/i&gt;&lt;b&gt;&lt;br&gt;&lt;/b&gt;&lt;/p&gt;&lt;p style=&quot;margin:0px;margin-top:4px;text-align:center;&quot;&gt;&lt;b&gt;ICrudCancionRepositorio&lt;/b&gt;&lt;br&gt;&lt;/p&gt;&lt;br&gt;&lt;hr size=&quot;1&quot; style=&quot;border-style:solid;&quot;&gt;&lt;div&gt;&amp;nbsp;+ Alta (Cancion c): Cancion&lt;br&gt;&lt;/div&gt;&lt;div&gt;&amp;nbsp;+ Baja (Cancion c): Cancion&lt;br&gt;&lt;/div&gt;&lt;div&gt;&amp;nbsp;+ Consulta (long idCancion): Cancion&lt;br&gt;&lt;/div&gt;&lt;div&gt;&amp;nbsp;+ Listado ():List&amp;lt;Cancion&amp;gt;&lt;br&gt;&lt;/div&gt;&lt;div&gt;&amp;nbsp;+ Modificar(Cancion c): Cancion&lt;br&gt;&lt;/div&gt;" style="verticalAlign=top;align=left;overflow=fill;html=1;whiteSpace=wrap;" parent="1" vertex="1">
          <mxGeometry x="1381" y="-781" width="230" height="150" as="geometry" />
        </mxCell>
        <mxCell id="3vq8-zfYxLDUjbg7CqO3-61" value="" style="endArrow=block;dashed=1;endFill=0;endSize=12;html=1;rounded=0;exitX=0.5;exitY=0;exitDx=0;exitDy=0;entryX=0.46;entryY=1.002;entryDx=0;entryDy=0;entryPerimeter=0;" parent="1" edge="1">
          <mxGeometry width="160" relative="1" as="geometry">
            <mxPoint x="1490" y="-551" as="sourcePoint" />
            <mxPoint x="1491" y="-631" as="targetPoint" />
          </mxGeometry>
        </mxCell>
        <mxCell id="3vq8-zfYxLDUjbg7CqO3-62" value="" style="shape=cylinder3;whiteSpace=wrap;html=1;boundedLbl=1;backgroundOutline=1;size=15;" parent="1" vertex="1">
          <mxGeometry x="1460" y="-370" width="150" height="250" as="geometry" />
        </mxCell>
        <mxCell id="3vq8-zfYxLDUjbg7CqO3-63" value="" style="endArrow=classic;startArrow=classic;html=1;rounded=0;entryX=0.5;entryY=1;entryDx=0;entryDy=0;exitX=0.5;exitY=0;exitDx=0;exitDy=0;exitPerimeter=0;" parent="1" source="3vq8-zfYxLDUjbg7CqO3-62" target="3vq8-zfYxLDUjbg7CqO3-52" edge="1">
          <mxGeometry width="50" height="50" relative="1" as="geometry">
            <mxPoint x="1460" y="-431" as="sourcePoint" />
            <mxPoint x="1510" y="-481" as="targetPoint" />
          </mxGeometry>
        </mxCell>
        <mxCell id="3vq8-zfYxLDUjbg7CqO3-64" value="&lt;p style=&quot;margin:0px;margin-top:4px;text-align:center;&quot;&gt;&lt;i&gt;&amp;lt;&amp;lt;Interface&amp;gt;&amp;gt;&lt;/i&gt;&lt;b&gt;&lt;br&gt;&lt;/b&gt;&lt;/p&gt;&lt;p style=&quot;margin:0px;margin-top:4px;text-align:center;&quot;&gt;&lt;b&gt;ICrudCancionController&lt;/b&gt;&lt;br&gt;&lt;/p&gt;&lt;br&gt;&lt;hr size=&quot;1&quot; style=&quot;border-style:solid;&quot;&gt;&lt;div&gt;&amp;nbsp;+ Alta (Cancion c): Cancion&lt;br&gt;&lt;/div&gt;&lt;div&gt;&amp;nbsp;+ Baja (Cancion c): Cancion&lt;br&gt;&lt;/div&gt;&lt;div&gt;&amp;nbsp;+ Consulta (long idCancion): Cancion&lt;br&gt;&lt;/div&gt;&lt;div&gt;&amp;nbsp;+ Listado ():List&amp;lt;Cancion&amp;gt;&lt;br&gt;&lt;/div&gt;&lt;div&gt;&amp;nbsp;+ Modificar(Cancion c): Cancion&lt;br&gt;&lt;/div&gt;" style="verticalAlign=top;align=left;overflow=fill;html=1;whiteSpace=wrap;" parent="1" vertex="1">
          <mxGeometry x="710" y="-800" width="230" height="150" as="geometry" />
        </mxCell>
        <mxCell id="3vq8-zfYxLDUjbg7CqO3-65" value="&lt;b&gt;CrudCancionController&lt;/b&gt;" style="swimlane;fontStyle=1;align=center;verticalAlign=top;childLayout=stackLayout;horizontal=1;startSize=26;horizontalStack=0;resizeParent=1;resizeParentMax=0;resizeLast=0;collapsible=1;marginBottom=0;whiteSpace=wrap;html=1;" parent="1" vertex="1">
          <mxGeometry x="710" y="-571" width="210" height="60" as="geometry" />
        </mxCell>
        <mxCell id="3vq8-zfYxLDUjbg7CqO3-66" value="+ repo: ICrudCancionService" style="text;strokeColor=none;fillColor=none;align=left;verticalAlign=top;spacingLeft=4;spacingRight=4;overflow=hidden;rotatable=0;points=[[0,0.5],[1,0.5]];portConstraint=eastwest;whiteSpace=wrap;html=1;" parent="3vq8-zfYxLDUjbg7CqO3-65" vertex="1">
          <mxGeometry y="26" width="210" height="26" as="geometry" />
        </mxCell>
        <mxCell id="3vq8-zfYxLDUjbg7CqO3-67" value="" style="line;strokeWidth=1;fillColor=none;align=left;verticalAlign=middle;spacingTop=-1;spacingLeft=3;spacingRight=3;rotatable=0;labelPosition=right;points=[];portConstraint=eastwest;strokeColor=inherit;" parent="3vq8-zfYxLDUjbg7CqO3-65" vertex="1">
          <mxGeometry y="52" width="210" height="8" as="geometry" />
        </mxCell>
        <mxCell id="3vq8-zfYxLDUjbg7CqO3-68" value="" style="endArrow=block;dashed=1;endFill=0;endSize=12;html=1;rounded=0;exitX=0.5;exitY=0;exitDx=0;exitDy=0;entryX=0.46;entryY=1.002;entryDx=0;entryDy=0;entryPerimeter=0;" parent="1" source="3vq8-zfYxLDUjbg7CqO3-65" edge="1">
          <mxGeometry width="160" relative="1" as="geometry">
            <mxPoint x="890" y="-631" as="sourcePoint" />
            <mxPoint x="816" y="-651" as="targetPoint" />
          </mxGeometry>
        </mxCell>
        <mxCell id="3vq8-zfYxLDUjbg7CqO3-69" value="" style="endArrow=diamondThin;endFill=0;endSize=24;html=1;rounded=0;exitX=0;exitY=0.25;exitDx=0;exitDy=0;entryX=0.999;entryY=0.903;entryDx=0;entryDy=0;entryPerimeter=0;" parent="1" source="3vq8-zfYxLDUjbg7CqO3-57" edge="1">
          <mxGeometry width="160" relative="1" as="geometry">
            <mxPoint x="1031" y="-641" as="sourcePoint" />
            <mxPoint x="920" y="-522" as="targetPoint" />
          </mxGeometry>
        </mxCell>
        <mxCell id="3vq8-zfYxLDUjbg7CqO3-70" value="" style="endArrow=classic;startArrow=classic;html=1;rounded=0;" parent="1" edge="1">
          <mxGeometry width="50" height="50" relative="1" as="geometry">
            <mxPoint x="1750" y="504" as="sourcePoint" />
            <mxPoint x="1600" y="504" as="targetPoint" />
          </mxGeometry>
        </mxCell>
        <mxCell id="3vq8-zfYxLDUjbg7CqO3-71" value="" style="endArrow=classic;startArrow=classic;html=1;rounded=0;" parent="1" edge="1">
          <mxGeometry width="50" height="50" relative="1" as="geometry">
            <mxPoint x="1740" y="904" as="sourcePoint" />
            <mxPoint x="1540" y="934" as="targetPoint" />
          </mxGeometry>
        </mxCell>
        <mxCell id="xhq2rs4rVyJfPjEWZU6R-2" value="" style="endArrow=diamondThin;endFill=0;endSize=24;html=1;rounded=0;exitX=0;exitY=0.5;exitDx=0;exitDy=0;entryX=1;entryY=0.5;entryDx=0;entryDy=0;" edge="1" parent="1" source="3vq8-zfYxLDUjbg7CqO3-34" target="3vq8-zfYxLDUjbg7CqO3-46">
          <mxGeometry width="160" relative="1" as="geometry">
            <mxPoint x="980" y="-310" as="sourcePoint" />
            <mxPoint x="900" y="-330" as="targetPoint" />
          </mxGeometry>
        </mxCell>
        <mxCell id="xhq2rs4rVyJfPjEWZU6R-6" value="" style="endArrow=diamondThin;endFill=0;endSize=24;html=1;rounded=0;exitX=0;exitY=0.5;exitDx=0;exitDy=0;entryX=1;entryY=0.5;entryDx=0;entryDy=0;" edge="1" parent="1">
          <mxGeometry width="160" relative="1" as="geometry">
            <mxPoint x="1095" y="-161" as="sourcePoint" />
            <mxPoint x="840" y="-180" as="targetPoint" />
          </mxGeometry>
        </mxCell>
      </root>
    </mxGraphModel>
  </diagram>
</mxfile>
